<svg data-name="グループ 11" xmlns="http://www.w3.org/2000/svg" width="30" height="30" viewBox="0 0 30 30"><defs><clipPath id="a"><path data-name="長方形 20" d="M0 0h30v30H0z"/></clipPath></defs><g data-name="グループ 10" clip-path="url(#a)"><path data-name="パス 26" d="M8.788.1a10.976 10.976 0 00-3.639.7A7.345 7.345 0 002.5 2.542 7.343 7.343 0 00.77 5.2a11.014 11.014 0 00-.69 3.645c-.071 1.6-.086 2.11-.079 6.184s.026 4.584.1 6.185a11.018 11.018 0 00.7 3.638A7.347 7.347 0 002.543 27.5 7.362 7.362 0 005.2 29.23a11 11 0 003.641.69c1.6.07 2.111.086 6.183.078s4.585-.025 6.185-.1a11.033 11.033 0 003.638-.7 7.667 7.667 0 004.378-4.4 10.978 10.978 0 00.691-3.641c.07-1.6.086-2.112.079-6.185s-.026-4.583-.1-6.183a11.014 11.014 0 00-.7-3.639 7.364 7.364 0 00-1.735-2.654A7.357 7.357 0 0024.8.77a10.986 10.986 0 00-3.645-.69c-1.6-.071-2.11-.086-6.184-.08s-4.584.027-6.183.1m.174 27.12a8.331 8.331 0 01-2.785-.51 4.673 4.673 0 01-1.727-1.119 4.658 4.658 0 01-1.125-1.722 8.325 8.325 0 01-.525-2.786c-.074-1.58-.091-2.055-.1-6.06s.007-4.479.076-6.062a8.33 8.33 0 01.51-2.785A4.652 4.652 0 014.409 4.45a4.636 4.636 0 011.723-1.125A8.294 8.294 0 018.916 2.8c1.582-.075 2.056-.091 6.06-.1s4.479.006 6.061.076a8.282 8.282 0 012.785.51 4.642 4.642 0 011.727 1.119 4.638 4.638 0 011.126 1.723 8.264 8.264 0 01.525 2.787c.075 1.582.092 2.057.1 6.061s-.007 4.48-.076 6.061a8.323 8.323 0 01-.51 2.787 4.971 4.971 0 01-2.842 2.852 8.3 8.3 0 01-2.782.522c-1.583.074-2.056.091-6.062.1s-4.478-.007-6.061-.076m12.224-20.24a1.8 1.8 0 101.8-1.8 1.8 1.8 0 00-1.8 1.8M7.3 15.014A7.7 7.7 0 1014.985 7.3 7.7 7.7 0 007.3 15.014m2.7-.005A5 5 0 1115.009 20 5 5 0 0110 15.009"/></g></svg>