<svg xmlns="http://www.w3.org/2000/svg" xmlns:xlink="http://www.w3.org/1999/xlink" width="220" height="36.578" viewBox="0 0 220 36.578"><defs><linearGradient id="b" x1="-.225" y1=".165" x2=".745" y2=".746" gradientUnits="objectBoundingBox"><stop offset="0" stop-color="#8dc21f"/><stop offset=".451" stop-color="#58ab30"/><stop offset=".86" stop-color="#00913a"/></linearGradient><linearGradient id="a" x1=".479" y1=".308" x2=".274" y2="1.059" gradientUnits="objectBoundingBox"><stop offset="0" stop-color="#8dc21f"/><stop offset="1" stop-color="#00913a"/></linearGradient><linearGradient id="c" x1=".5" y1=".055" x2=".5" y2="1.301" xlink:href="#a"/></defs><g data-name="グループ 81"><path data-name="パス 35" d="M38.374 15.602h8.595a9.053 9.053 0 013.853.765 5.985 5.985 0 012.549 2.145 5.77 5.77 0 01.906 3.239v.029a5.823 5.823 0 01-1.231 3.71 6.394 6.394 0 01-3.376 2.181l5.306 8.565h-3.352l-4.909-8.164h-5.481v8.164h-2.86zm8.34 10.2a5.08 5.08 0 003.408-1.03 3.653 3.653 0 001.2-2.931v-.028a3.522 3.522 0 00-1.263-2.881 5.318 5.318 0 00-3.472-1.037h-5.353v7.907z"/><path data-name="パス 36" d="M56.125 15.602h14.2v2.316H58.984v6.62H69.74v2.288H58.984v7.092h11.344v2.316h-14.2z"/><path data-name="パス 37" d="M72.349 15.602h2.86v20.633h-2.86zm1.43 10.981h6.005a5.708 5.708 0 003.813-1.151 3.957 3.957 0 001.35-3.181v-.029a3.952 3.952 0 00-1.35-3.188 5.731 5.731 0 00-3.813-1.144h-6.005v-2.288h6.732a8.387 8.387 0 013.813.83 6.417 6.417 0 012.6 2.316 6.284 6.284 0 01.945 3.446v.028a6.355 6.355 0 01-.945 3.461 6.484 6.484 0 01-2.6 2.345 8.27 8.27 0 01-3.813.844h-6.736z"/><path data-name="パス 38" d="M89.401 15.602h8.595a9.051 9.051 0 013.853.765 5.981 5.981 0 012.549 2.145 5.766 5.766 0 01.906 3.239v.029a5.823 5.823 0 01-1.231 3.71 6.394 6.394 0 01-3.376 2.181l5.306 8.565h-3.352l-4.91-8.164H92.26v8.164H89.4zm8.34 10.2a5.082 5.082 0 003.408-1.03 3.652 3.652 0 001.2-2.931v-.028a3.52 3.52 0 00-1.263-2.881 5.317 5.317 0 00-3.471-1.037h-5.354v7.907z"/><path data-name="パス 39" d="M111.21 35.277a8.975 8.975 0 01-3.662-3.689 11.774 11.774 0 01-1.292-5.658v-.029a11.667 11.667 0 011.3-5.655 9.036 9.036 0 013.67-3.682 12.757 12.757 0 0111.225 0 9 9 0 013.654 3.682 11.732 11.732 0 011.287 5.655v.029a11.775 11.775 0 01-1.287 5.662 9 9 0 01-3.646 3.689 12.807 12.807 0 01-11.248 0zm9.707-2.095a6.791 6.791 0 002.629-2.881 9.746 9.746 0 00.921-4.376v-.029a9.71 9.71 0 00-.929-4.39 6.736 6.736 0 00-2.645-2.867 8.66 8.66 0 00-8.11 0 6.773 6.773 0 00-2.661 2.86 9.624 9.624 0 00-.937 4.4v.029a9.633 9.633 0 00.937 4.39 6.828 6.828 0 002.653 2.874 8.646 8.646 0 008.142-.007z"/><path data-name="パス 40" d="M130.76 15.602h1.239v9.523h14.521v-9.523h1.239v20.633h-1.239V26.154h-14.521v10.081h-1.239z"/><path data-name="パス 41" d="M153.912 35.24a8.8 8.8 0 01-3.551-3.682 12.037 12.037 0 01-1.247-5.648v-.029a11.815 11.815 0 011.256-5.612 8.949 8.949 0 013.542-3.667 11.942 11.942 0 0110.843 0 8.912 8.912 0 013.527 3.675 11.9 11.9 0 011.247 5.6v.029a12.051 12.051 0 01-1.247 5.648 8.84 8.84 0 01-3.527 3.682 10.78 10.78 0 01-5.409 1.294 10.914 10.914 0 01-5.434-1.29zm10.184-.937a7.974 7.974 0 003.09-3.339 11.069 11.069 0 001.088-5.054v-.029a10.943 10.943 0 00-1.1-5.054 7.932 7.932 0 00-3.106-3.31 10.178 10.178 0 00-9.485 0 7.924 7.924 0 00-3.105 3.31 10.943 10.943 0 00-1.1 5.054v.029a11.033 11.033 0 001.1 5.069 7.942 7.942 0 003.114 3.332 9.244 9.244 0 004.75 1.179 9.146 9.146 0 004.754-1.191z"/><path data-name="パス 42" d="M174.887 35.606a6.9 6.9 0 01-2.955-2.6 7.329 7.329 0 01-1.033-3.932V15.602h1.239v13.426a6 6 0 001.962 4.7 9.041 9.041 0 0010.716 0 6.017 6.017 0 001.954-4.7V15.602h1.255v13.469a7.284 7.284 0 01-1.049 3.939 6.956 6.956 0 01-2.963 2.6 11.714 11.714 0 01-9.127-.007z"/><path data-name="パス 43" d="M193.331 35.834a6.834 6.834 0 01-2.884-1.988 5.285 5.285 0 01-1.207-3l-.016-.186h1.255l.016.186a4.37 4.37 0 001.073 2.445 5.977 5.977 0 002.447 1.623 9.958 9.958 0 003.535.579 9.814 9.814 0 003.479-.565 5.346 5.346 0 002.319-1.58 3.646 3.646 0 00.826-2.373v-.014a3.359 3.359 0 00-1.295-2.774 10.643 10.643 0 00-4.33-1.659l-2.462-.5a10.866 10.866 0 01-4.79-1.966 4.222 4.222 0 01-1.5-3.381v-.029a4.371 4.371 0 01.985-2.766 6.412 6.412 0 012.654-1.895 10.988 10.988 0 017.7.022 6.62 6.62 0 012.717 1.995 5.448 5.448 0 011.16 2.988l.016.186h-1.239l-.032-.186a4.459 4.459 0 00-1-2.452 5.683 5.683 0 00-2.264-1.615 8.472 8.472 0 00-3.249-.579 8.806 8.806 0 00-3.217.543 5.152 5.152 0 00-2.177 1.508 3.44 3.44 0 00-.786 2.238v.014a3.315 3.315 0 001.286 2.71 9.861 9.861 0 004.115 1.623l2.479.515a11.479 11.479 0 015 1.98 4.263 4.263 0 011.5 3.439v.014a4.618 4.618 0 01-.993 2.945 6.435 6.435 0 01-2.781 1.959 11.4 11.4 0 01-4.17.7 11.559 11.559 0 01-4.17-.704z"/><path data-name="パス 44" d="M206.639 15.602H220v1.03h-12.122v8.508h11.534v1.029h-11.534v9.037H220v1.03h-13.361z"/></g><g data-name="グループ 82"><path data-name="パス 45" d="M96.315 389.466V425.7h6.585v-28s0-6.69-6.585-8.234z" transform="translate(-96.315 -389.466)" fill="url(#b)"/><path data-name="パス 46" d="M102.9 418.7v12.353h-6.585v-14.827s0-14 25.481-14c.004.004-18.896 4.198-18.896 16.474z" transform="translate(-96.315 -394.814)" fill="url(#a)"/><path data-name="パス 47" d="M124.6 427.885v8.235h6.588v-10.705s.858-11.08-15.5-11.08c.002 0 8.912 1.279 8.912 13.55z" transform="translate(-104.433 -399.886)" fill="url(#c)"/></g></svg>