<svg data-name="グループ 106" xmlns="http://www.w3.org/2000/svg" width="275" height="22.637" viewBox="0 0 275 22.637"><defs><clipPath id="a"><path data-name="長方形 110" fill="none" d="M0 0h275v22.637H0z"/></clipPath></defs><g data-name="グループ 106" clip-path="url(#a)"><path data-name="パス 52" d="M62.438 11.443h5.1a2.216 2.216 0 00.746 1.617 3.156 3.156 0 001.99.5 3.612 3.612 0 001.741-.373 1.306 1.306 0 00.622-1.119c0-.622-.746-1.119-2.363-1.493-.871-.249-1.493-.373-2.114-.622a10.453 10.453 0 01-3.98-1.99A3.94 3.94 0 0163.06 5.1a4.281 4.281 0 011.866-3.731A8.43 8.43 0 0169.9 0a10.188 10.188 0 015.224 1.119A4.7 4.7 0 0177.239 4.6h-4.975a1.811 1.811 0 00-.746-1.119 2.822 2.822 0 00-1.618-.372 2 2 0 00-1.368.373 1.131 1.131 0 00-.5 1c0 .622.871 1.119 2.488 1.617a3.845 3.845 0 001 .249c1.617.5 2.612.746 3.234 1s1 .5 1.368.622a2.9 2.9 0 011.244 1.493 4.544 4.544 0 01.373 1.866 4.392 4.392 0 01-1.99 3.98 9.34 9.34 0 01-5.6 1.493 9.59 9.59 0 01-5.473-1.368 5.066 5.066 0 01-2.239-3.98m32.711 4.851h-5.223c0-.249-.124-.5-.124-.746s-.124-.5-.124-.871a7.292 7.292 0 01-2.363 1.617 6.693 6.693 0 01-2.736.5 4.907 4.907 0 01-3.607-1.244 4.593 4.593 0 01-1.371-3.372 5.544 5.544 0 011-3.234 6.807 6.807 0 013.109-1.741c.746-.124 1.741-.373 2.985-.622 1.741-.249 2.612-.746 2.612-1.244V5.1a1.009 1.009 0 00-.5-1c-.124-.249-.622-.373-1.368-.373a2.432 2.432 0 00-1.741.5 1.649 1.649 0 00-.746 1.244h-4.727a5.6 5.6 0 012.239-3.98A9.026 9.026 0 0187.687.249a9.383 9.383 0 013.483.5 5.059 5.059 0 012.239 1.493 4.361 4.361 0 01.746 1.741 17.693 17.693 0 01.245 3.231v5.97a2.94 2.94 0 00.249 1.617 1.274 1.274 0 00.622.746v.746zm-5.6-7.463a7.828 7.828 0 01-2.114.746 7.928 7.928 0 00-1.119.249 3.5 3.5 0 00-1.368.622 1.52 1.52 0 00-.373 1.119 1.87 1.87 0 00.5 1.368 1.7 1.7 0 001.368.5 2.926 2.926 0 002.114-.746 2.134 2.134 0 001-1.99zm8.333 7.463V.622h5.1v2.114a4.744 4.744 0 011.99-1.866 6.332 6.332 0 012.736-.622 5.109 5.109 0 013.98 1.368c.871.871 1.244 2.363 1.244 4.478v10.2h-5.1V8.333c0-1.866-.124-2.985-.5-3.483-.249-.5-.871-.746-1.741-.746a2.18 2.18 0 00-1.99.871 5.742 5.742 0 00-.622 2.861v8.333h-5.1zm21.393 0L114.677.622h5.223l2.239 10.821L124 .622h5.348l1.99 10.821L133.582.622h5.224l-4.6 15.672h-5.348L126.741 5.97 124.5 16.294zm35.945 0H150a1.578 1.578 0 01-.124-.746c0-.249-.124-.5-.124-.871a8.432 8.432 0 01-2.239 1.617 6.693 6.693 0 01-2.736.5 4.907 4.907 0 01-3.607-1.244 4.593 4.593 0 01-1.368-3.358 5.544 5.544 0 011-3.234 6.807 6.807 0 013.109-1.741c.746-.124 1.741-.373 2.985-.622 1.741-.249 2.612-.746 2.612-1.244V5.1a1.009 1.009 0 00-.5-1 2.653 2.653 0 00-1.493-.373 2.432 2.432 0 00-1.741.5 1.649 1.649 0 00-.746 1.244H140.3a5.6 5.6 0 012.239-3.98 9.025 9.025 0 015.222-1.242 9.383 9.383 0 013.483.5 5.059 5.059 0 012.239 1.493 4.361 4.361 0 01.746 1.741 17.7 17.7 0 01.249 3.234v5.97a2.939 2.939 0 00.249 1.617 1.274 1.274 0 00.622.746v.746zM149.5 8.831a7.827 7.827 0 01-2.114.746 7.928 7.928 0 00-1.119.249 2.807 2.807 0 00-1.368.622 1.52 1.52 0 00-.373 1.119 1.87 1.87 0 00.5 1.368 1.7 1.7 0 001.368.5 2.926 2.926 0 002.114-.746 2.706 2.706 0 00.871-1.99V8.831zm19.154 2.114h1.746a6.465 6.465 0 01-1.99 4.229 6.491 6.491 0 01-4.478 1.493 6.382 6.382 0 01-4.975-2.114 8.636 8.636 0 01-1.741-5.846 8.8 8.8 0 011.866-5.97 6.687 6.687 0 019.2-.746 4.913 4.913 0 011.741 3.856h-1.741a4.449 4.449 0 00-1.368-2.736 4.538 4.538 0 00-2.985-1 4.422 4.422 0 00-3.607 1.741 8.57 8.57 0 00-1.122 4.73 8.293 8.293 0 001.368 4.851 4.422 4.422 0 003.607 1.741 4.034 4.034 0 002.985-1.119 5.631 5.631 0 001.497-3.11zm3.856-2.363a8.587 8.587 0 011.866-5.97 7.51 7.51 0 0110.448 0 8.587 8.587 0 011.866 5.97 8.8 8.8 0 01-1.866 5.97 7.51 7.51 0 01-10.448 0 8.587 8.587 0 01-1.866-5.97m1.866 0a7.766 7.766 0 001.368 4.851 5.139 5.139 0 007.711 0 7.766 7.766 0 001.368-4.851 7.766 7.766 0 00-1.368-4.851 5.139 5.139 0 00-7.711 0 8.293 8.293 0 00-1.368 4.851m15.424 7.712V.871h1.741v2.487A5.3 5.3 0 01196.393.5a5.152 5.152 0 012.861.746 3.622 3.622 0 011.493 2.239 5.873 5.873 0 011.99-2.239A5.778 5.778 0 01205.6.5a5.024 5.024 0 013.731 1.244 5.025 5.025 0 011.244 3.731v10.7h-1.741V5.721a4 4 0 00-.746-2.736 3.511 3.511 0 00-2.488-.871 4.045 4.045 0 00-3.234 1.244 5.054 5.054 0 00-1.244 3.358v9.577h-1.741V5.846a4.62 4.62 0 00-.746-2.861 2.926 2.926 0 00-2.363-.871 4.219 4.219 0 00-3.234 1.244 4.5 4.5 0 00-1.244 3.358v9.453H189.8zm24.751 6.095V.871h1.741v2.86a5.178 5.178 0 012.239-2.363 6.543 6.543 0 013.234-.746 6.382 6.382 0 014.975 2.114 8.8 8.8 0 011.866 5.97 9.026 9.026 0 01-1.866 5.97 7.077 7.077 0 01-8.209 1.368 5.9 5.9 0 01-2.239-2.363v8.706zm1.741-13.806a7.627 7.627 0 001.368 4.726 4.738 4.738 0 003.856 1.741 4.408 4.408 0 003.856-1.741 7.766 7.766 0 001.368-4.851 7.766 7.766 0 00-1.368-4.851 5.139 5.139 0 00-7.711 0 7.854 7.854 0 00-1.368 4.975m25.373 5.473a9.719 9.719 0 01-2.612 1.99 8.55 8.55 0 01-2.985.622 5.422 5.422 0 01-3.731-1.244 4.441 4.441 0 01-.746-5.473 3.843 3.843 0 011.866-1.493 14.924 14.924 0 014.6-.871 2.425 2.425 0 001-.124.94.94 0 00.5-.124c1.493-.249 2.239-1 2.239-1.866a3.326 3.326 0 00-.871-2.612 4.62 4.62 0 00-2.861-.746 4.428 4.428 0 00-3.109.871 3.213 3.213 0 00-1.125 2.615h-1.741a4.422 4.422 0 011.741-3.607 7 7 0 014.353-1.371 6.138 6.138 0 014.229 1.244 4.174 4.174 0 011.493 3.483v8.333a2.676 2.676 0 00.249 1.244 1.45 1.45 0 00.871.249h.622v1.368a5.387 5.387 0 00-.622.124h-.626a2.11 2.11 0 01-1.617-.5 2.11 2.11 0 01-.5-1.617v-.5zm-.124-5.846c-.5.124-1.119.249-1.741.373a21.727 21.727 0 01-3.607.249 6.4 6.4 0 00-2.612 1.244 2.475 2.475 0 00-.871 1.99 2.562 2.562 0 00.871 2.114 3.947 3.947 0 002.488.746 5.539 5.539 0 003.856-1.244 4.34 4.34 0 001.493-3.483V8.209zm5.97 8.085V.871h1.741v2.487a5.736 5.736 0 012.114-2.114A5.909 5.909 0 01254.353.5a4.708 4.708 0 012.736.622 4.649 4.649 0 011.866 1.617 3.725 3.725 0 01.5 1.244 12.89 12.89 0 01.124 2.488v9.826h-1.866V6.716c0-1.866-.249-2.985-.871-3.607a3.713 3.713 0 00-2.985-1 4.213 4.213 0 00-3.357 1.374 5.024 5.024 0 00-1.244 3.731v9.08zm20.647 2.985a6.285 6.285 0 01-1.617 2.612 3.947 3.947 0 01-2.488.746h-.622c-.249 0-.373-.124-.622-.124V20.9a4.4 4.4 0 01.746.124h.5a1.983 1.983 0 001.493-.5 5.3 5.3 0 001.119-2.114l.746-1.866L261.443 1h1.866l4.975 13.06L273.134 1H275zM55.473 8.458A7.836 7.836 0 1147.637.622a7.726 7.726 0 017.836 7.836zm-19.9 0A7.836 7.836 0 1127.736.622a7.726 7.726 0 017.836 7.836zm-19.9 0A7.836 7.836 0 117.836.622a7.726 7.726 0 017.836 7.836z"/></g></svg>