<svg id="グループ_11" data-name="グループ 11" xmlns="http://www.w3.org/2000/svg" xmlns:xlink="http://www.w3.org/1999/xlink" width="30" height="30" viewBox="0 0 30 30">
  <defs>
    <clipPath id="clip-path">
      <rect id="長方形_20" data-name="長方形 20" width="30" height="30"/>
    </clipPath>
  </defs>
  <g id="グループ_10" data-name="グループ 10" clip-path="url(#clip-path)">
    <path id="パス_26" data-name="パス 26" d="M8.788.1a10.976,10.976,0,0,0-3.639.7A7.345,7.345,0,0,0,2.5,2.542,7.343,7.343,0,0,0,.77,5.2,11.014,11.014,0,0,0,.08,8.845c-.071,1.6-.086,2.11-.079,6.184s.026,4.584.1,6.185a11.018,11.018,0,0,0,.7,3.638A7.347,7.347,0,0,0,2.543,27.5,7.362,7.362,0,0,0,5.2,29.23a11,11,0,0,0,3.641.69c1.6.07,2.111.086,6.183.078s4.585-.025,6.185-.1a11.033,11.033,0,0,0,3.638-.7,7.667,7.667,0,0,0,4.378-4.4,10.978,10.978,0,0,0,.691-3.641c.07-1.6.086-2.112.079-6.185s-.026-4.583-.1-6.183a11.014,11.014,0,0,0-.7-3.639,7.364,7.364,0,0,0-1.735-2.654A7.357,7.357,0,0,0,24.8.77,10.986,10.986,0,0,0,21.155.08C19.555.009,19.045-.006,14.971,0S10.387.027,8.788.1M8.962,27.22a8.331,8.331,0,0,1-2.785-.51A4.673,4.673,0,0,1,4.45,25.591a4.658,4.658,0,0,1-1.125-1.722A8.325,8.325,0,0,1,2.8,21.083c-.074-1.58-.091-2.055-.1-6.06s.007-4.479.076-6.062a8.33,8.33,0,0,1,.51-2.785A4.652,4.652,0,0,1,4.409,4.45,4.636,4.636,0,0,1,6.132,3.325,8.294,8.294,0,0,1,8.916,2.8c1.582-.075,2.056-.091,6.06-.1s4.479.006,6.061.076a8.282,8.282,0,0,1,2.785.51,4.642,4.642,0,0,1,1.727,1.119,4.638,4.638,0,0,1,1.126,1.723A8.264,8.264,0,0,1,27.2,8.915c.075,1.582.092,2.057.1,6.061s-.007,4.48-.076,6.061a8.323,8.323,0,0,1-.51,2.787,4.971,4.971,0,0,1-2.842,2.852,8.3,8.3,0,0,1-2.782.522c-1.583.074-2.056.091-6.062.1s-4.478-.007-6.061-.076M21.191,6.982a1.8,1.8,0,1,0,1.8-1.8,1.8,1.8,0,0,0-1.8,1.8M7.3,15.014A7.7,7.7,0,1,0,14.985,7.3,7.7,7.7,0,0,0,7.3,15.014m2.7-.005A5,5,0,1,1,15.009,20,5,5,0,0,1,10,15.009" transform="translate(0 0)"/>
  </g>
</svg>
