<svg id="logo" xmlns="http://www.w3.org/2000/svg" xmlns:xlink="http://www.w3.org/1999/xlink" width="220" height="36.578" viewBox="0 0 220 36.578">
  <defs>
    <linearGradient id="linear-gradient" x1="-0.225" y1="0.165" x2="0.745" y2="0.746" gradientUnits="objectBoundingBox">
      <stop offset="0" stop-color="#8dc21f"/>
      <stop offset="0.451" stop-color="#58ab30"/>
      <stop offset="0.86" stop-color="#00913a"/>
    </linearGradient>
    <linearGradient id="linear-gradient-2" x1="0.479" y1="0.308" x2="0.274" y2="1.059" gradientUnits="objectBoundingBox">
      <stop offset="0" stop-color="#8dc21f"/>
      <stop offset="1" stop-color="#00913a"/>
    </linearGradient>
    <linearGradient id="linear-gradient-3" x1="0.5" y1="0.055" x2="0.5" y2="1.301" xlink:href="#linear-gradient-2"/>
  </defs>
  <g id="グループ_81" data-name="グループ 81" transform="translate(38.374 15.259)">
    <path id="パス_35" data-name="パス 35" d="M162.362,416.319h8.595a9.053,9.053,0,0,1,3.853.765,5.985,5.985,0,0,1,2.549,2.145,5.77,5.77,0,0,1,.906,3.239v.029a5.823,5.823,0,0,1-1.231,3.71,6.394,6.394,0,0,1-3.376,2.181l5.306,8.565h-3.352l-4.909-8.164h-5.481v8.164h-2.86Zm8.34,10.2a5.08,5.08,0,0,0,3.408-1.03,3.653,3.653,0,0,0,1.2-2.931v-.028a3.522,3.522,0,0,0-1.263-2.881,5.318,5.318,0,0,0-3.472-1.037h-5.353v7.907Z" transform="translate(-162.362 -415.976)"/>
    <path id="パス_36" data-name="パス 36" d="M192.913,416.319h14.2v2.316H195.772v6.62h10.756v2.288H195.772v7.092h11.344v2.316h-14.2Z" transform="translate(-175.162 -415.976)"/>
    <path id="パス_37" data-name="パス 37" d="M220.838,416.319h2.86v20.633h-2.86Zm1.43,10.981h6.005a5.708,5.708,0,0,0,3.813-1.151,3.957,3.957,0,0,0,1.35-3.181v-.029a3.952,3.952,0,0,0-1.35-3.188,5.731,5.731,0,0,0-3.813-1.144h-6.005v-2.288H229a8.387,8.387,0,0,1,3.813.83,6.417,6.417,0,0,1,2.6,2.316,6.284,6.284,0,0,1,.945,3.446v.028a6.355,6.355,0,0,1-.945,3.461,6.484,6.484,0,0,1-2.6,2.345,8.27,8.27,0,0,1-3.813.844h-6.736Z" transform="translate(-186.863 -415.976)"/>
    <path id="パス_38" data-name="パス 38" d="M250.186,416.319h8.595a9.051,9.051,0,0,1,3.853.765,5.981,5.981,0,0,1,2.549,2.145,5.766,5.766,0,0,1,.906,3.239v.029a5.823,5.823,0,0,1-1.231,3.71,6.394,6.394,0,0,1-3.376,2.181l5.306,8.565h-3.352l-4.91-8.164h-5.481v8.164h-2.86Zm8.34,10.2a5.082,5.082,0,0,0,3.408-1.03,3.652,3.652,0,0,0,1.2-2.931v-.028a3.52,3.52,0,0,0-1.263-2.881,5.317,5.317,0,0,0-3.471-1.037h-5.354v7.907Z" transform="translate(-199.159 -415.976)"/>
    <path id="パス_39" data-name="パス 39" d="M284.154,435.747a8.975,8.975,0,0,1-3.662-3.689A11.774,11.774,0,0,1,279.2,426.4v-.029a11.667,11.667,0,0,1,1.3-5.655,9.036,9.036,0,0,1,3.67-3.682,12.757,12.757,0,0,1,11.225,0,9,9,0,0,1,3.654,3.682,11.732,11.732,0,0,1,1.287,5.655v.029a11.775,11.775,0,0,1-1.287,5.662,9,9,0,0,1-3.646,3.689,12.807,12.807,0,0,1-11.248,0Zm9.707-2.095a6.791,6.791,0,0,0,2.629-2.881,9.746,9.746,0,0,0,.921-4.376v-.029a9.71,9.71,0,0,0-.929-4.39,6.736,6.736,0,0,0-2.645-2.867,8.66,8.66,0,0,0-8.11,0,6.773,6.773,0,0,0-2.661,2.86,9.624,9.624,0,0,0-.937,4.4v.029a9.633,9.633,0,0,0,.937,4.39,6.828,6.828,0,0,0,2.653,2.874,8.646,8.646,0,0,0,8.142-.007Z" transform="translate(-211.318 -415.729)"/>
    <path id="パス_40" data-name="パス 40" d="M321.37,416.319h1.239v9.523H337.13v-9.523h1.239v20.633H337.13V426.871H322.609v10.081H321.37Z" transform="translate(-228.984 -415.976)"/>
    <path id="パス_41" data-name="パス 41" d="M357.757,435.741a8.8,8.8,0,0,1-3.551-3.682,12.037,12.037,0,0,1-1.247-5.648v-.029a11.815,11.815,0,0,1,1.256-5.612,8.949,8.949,0,0,1,3.542-3.667,11.942,11.942,0,0,1,10.843,0,8.912,8.912,0,0,1,3.527,3.675,11.9,11.9,0,0,1,1.247,5.6v.029a12.051,12.051,0,0,1-1.247,5.648,8.84,8.84,0,0,1-3.527,3.682,10.78,10.78,0,0,1-5.409,1.294A10.914,10.914,0,0,1,357.757,435.741Zm10.184-.937a7.974,7.974,0,0,0,3.09-3.339,11.069,11.069,0,0,0,1.088-5.054v-.029a10.943,10.943,0,0,0-1.1-5.054,7.932,7.932,0,0,0-3.106-3.31,10.178,10.178,0,0,0-9.485,0,7.924,7.924,0,0,0-3.105,3.31,10.943,10.943,0,0,0-1.1,5.054v.029a11.033,11.033,0,0,0,1.1,5.069,7.942,7.942,0,0,0,3.114,3.332,9.244,9.244,0,0,0,4.75,1.179A9.146,9.146,0,0,0,367.941,434.8Z" transform="translate(-242.219 -415.76)"/>
    <path id="パス_42" data-name="パス 42" d="M394.443,436.323a6.9,6.9,0,0,1-2.955-2.6,7.329,7.329,0,0,1-1.033-3.932V416.319h1.239v13.426a6,6,0,0,0,1.962,4.7,9.041,9.041,0,0,0,10.716,0,6.017,6.017,0,0,0,1.954-4.7V416.319h1.255v13.469a7.284,7.284,0,0,1-1.049,3.939,6.956,6.956,0,0,1-2.963,2.6,11.714,11.714,0,0,1-9.127-.007Z" transform="translate(-257.93 -415.976)"/>
    <path id="パス_43" data-name="パス 43" d="M426.1,436.335a6.834,6.834,0,0,1-2.884-1.988,5.285,5.285,0,0,1-1.207-3l-.016-.186h1.255l.016.186a4.37,4.37,0,0,0,1.073,2.445,5.977,5.977,0,0,0,2.447,1.623,9.958,9.958,0,0,0,3.535.579,9.814,9.814,0,0,0,3.479-.565,5.346,5.346,0,0,0,2.319-1.58,3.646,3.646,0,0,0,.826-2.373v-.014a3.359,3.359,0,0,0-1.295-2.774,10.643,10.643,0,0,0-4.33-1.659l-2.462-.5a10.866,10.866,0,0,1-4.79-1.966,4.222,4.222,0,0,1-1.5-3.381v-.029a4.371,4.371,0,0,1,.985-2.766,6.412,6.412,0,0,1,2.654-1.895,10.988,10.988,0,0,1,7.7.022,6.62,6.62,0,0,1,2.717,1.995,5.448,5.448,0,0,1,1.16,2.988l.016.186h-1.239l-.032-.186a4.459,4.459,0,0,0-1-2.452,5.683,5.683,0,0,0-2.264-1.615,8.472,8.472,0,0,0-3.249-.579,8.806,8.806,0,0,0-3.217.543,5.152,5.152,0,0,0-2.177,1.508,3.44,3.44,0,0,0-.786,2.238v.014a3.315,3.315,0,0,0,1.286,2.71,9.861,9.861,0,0,0,4.115,1.623l2.479.515a11.479,11.479,0,0,1,5,1.98,4.263,4.263,0,0,1,1.5,3.439v.014a4.618,4.618,0,0,1-.993,2.945,6.435,6.435,0,0,1-2.781,1.959,11.4,11.4,0,0,1-4.17.7A11.559,11.559,0,0,1,426.1,436.335Z" transform="translate(-271.143 -415.76)"/>
    <path id="パス_44" data-name="パス 44" d="M451.967,416.319h13.361v1.03H453.206v8.508h11.534v1.029H453.206v9.037h12.122v1.03H451.967Z" transform="translate(-283.702 -415.976)"/>
  </g>
  <g id="グループ_82" data-name="グループ 82">
    <path id="パス_45" data-name="パス 45" d="M96.315,389.466V425.7H102.9v-28S102.9,391.01,96.315,389.466Z" transform="translate(-96.315 -389.466)" fill="url(#linear-gradient)"/>
    <path id="パス_46" data-name="パス 46" d="M102.9,418.7v12.353H96.315V416.226s0-14,25.481-14C121.8,402.23,102.9,406.424,102.9,418.7Z" transform="translate(-96.315 -394.814)" fill="url(#linear-gradient-2)"/>
    <path id="パス_47" data-name="パス 47" d="M124.6,427.885v8.235h6.588V425.415s.858-11.08-15.5-11.08C115.69,414.335,124.6,415.614,124.6,427.885Z" transform="translate(-104.433 -399.886)" fill="url(#linear-gradient-3)"/>
  </g>
</svg>
