<svg id="グループ_106" data-name="グループ 106" xmlns="http://www.w3.org/2000/svg" xmlns:xlink="http://www.w3.org/1999/xlink" width="275" height="22.637" viewBox="0 0 275 22.637">
  <defs>
    <clipPath id="clip-path">
      <rect id="長方形_110" data-name="長方形 110" width="275" height="22.637" fill="none"/>
    </clipPath>
  </defs>
  <g id="グループ_106-2" data-name="グループ 106" transform="translate(0 0)" clip-path="url(#clip-path)">
    <path id="パス_52" data-name="パス 52" d="M62.438,11.443h5.1a2.216,2.216,0,0,0,.746,1.617,3.156,3.156,0,0,0,1.99.5,3.612,3.612,0,0,0,1.741-.373,1.306,1.306,0,0,0,.622-1.119c0-.622-.746-1.119-2.363-1.493-.871-.249-1.493-.373-2.114-.622a10.453,10.453,0,0,1-3.98-1.99A3.94,3.94,0,0,1,63.06,5.1a4.281,4.281,0,0,1,1.866-3.731A8.43,8.43,0,0,1,69.9,0a10.188,10.188,0,0,1,5.224,1.119A4.7,4.7,0,0,1,77.239,4.6H72.264a1.811,1.811,0,0,0-.746-1.119A2.822,2.822,0,0,0,69.9,3.109a2,2,0,0,0-1.368.373,1.131,1.131,0,0,0-.5,1c0,.622.871,1.119,2.488,1.617a3.845,3.845,0,0,0,1,.249c1.617.5,2.612.746,3.234,1s1,.5,1.368.622a2.9,2.9,0,0,1,1.244,1.493,4.544,4.544,0,0,1,.373,1.866,4.392,4.392,0,0,1-1.99,3.98,9.34,9.34,0,0,1-5.6,1.493,9.59,9.59,0,0,1-5.473-1.368,5.066,5.066,0,0,1-2.239-3.98m32.711,4.851H89.925c0-.249-.124-.5-.124-.746s-.124-.5-.124-.871a7.292,7.292,0,0,1-2.363,1.617,6.693,6.693,0,0,1-2.736.5,4.907,4.907,0,0,1-3.607-1.244A4.593,4.593,0,0,1,79.6,12.189a5.544,5.544,0,0,1,1-3.234,6.807,6.807,0,0,1,3.109-1.741c.746-.124,1.741-.373,2.985-.622,1.741-.249,2.612-.746,2.612-1.244V5.1a1.009,1.009,0,0,0-.5-1c-.124-.249-.622-.373-1.368-.373a2.432,2.432,0,0,0-1.741.5,1.649,1.649,0,0,0-.746,1.244H80.224a5.6,5.6,0,0,1,2.239-3.98A9.026,9.026,0,0,1,87.687.249a9.383,9.383,0,0,1,3.483.5,5.059,5.059,0,0,1,2.239,1.493,4.361,4.361,0,0,1,.746,1.741A17.693,17.693,0,0,1,94.4,7.214v5.97a2.94,2.94,0,0,0,.249,1.617,1.274,1.274,0,0,0,.622.746v.746Zm-5.6-7.463a7.828,7.828,0,0,1-2.114.746,7.928,7.928,0,0,0-1.119.249,3.5,3.5,0,0,0-1.368.622,1.52,1.52,0,0,0-.373,1.119,1.87,1.87,0,0,0,.5,1.368,1.7,1.7,0,0,0,1.368.5,2.926,2.926,0,0,0,2.114-.746,2.134,2.134,0,0,0,1-1.99Zm8.333,7.463V.622h5.1V2.736a4.744,4.744,0,0,1,1.99-1.866,6.332,6.332,0,0,1,2.736-.622,5.109,5.109,0,0,1,3.98,1.368c.871.871,1.244,2.363,1.244,4.478v10.2h-5.1V8.333c0-1.866-.124-2.985-.5-3.483-.249-.5-.871-.746-1.741-.746a2.18,2.18,0,0,0-1.99.871,5.742,5.742,0,0,0-.622,2.861v8.333h-5.1Zm21.393,0L114.677.622H119.9l2.239,10.821L124,.622h5.348l1.99,10.821L133.582.622h5.224l-4.6,15.672h-5.348L126.741,5.97,124.5,16.294Zm35.945,0H150a1.578,1.578,0,0,1-.124-.746c0-.249-.124-.5-.124-.871a8.432,8.432,0,0,1-2.239,1.617,6.693,6.693,0,0,1-2.736.5,4.907,4.907,0,0,1-3.607-1.244,4.593,4.593,0,0,1-1.368-3.358,5.544,5.544,0,0,1,1-3.234,6.807,6.807,0,0,1,3.109-1.741c.746-.124,1.741-.373,2.985-.622,1.741-.249,2.612-.746,2.612-1.244V5.1a1.009,1.009,0,0,0-.5-1,2.653,2.653,0,0,0-1.493-.373,2.432,2.432,0,0,0-1.741.5,1.649,1.649,0,0,0-.746,1.244H140.3a5.6,5.6,0,0,1,2.239-3.98A9.025,9.025,0,0,1,147.761.249a9.383,9.383,0,0,1,3.483.5,5.059,5.059,0,0,1,2.239,1.493,4.361,4.361,0,0,1,.746,1.741,17.7,17.7,0,0,1,.249,3.234v5.97a2.939,2.939,0,0,0,.249,1.617,1.274,1.274,0,0,0,.622.746v.746ZM149.5,8.831a7.827,7.827,0,0,1-2.114.746,7.928,7.928,0,0,0-1.119.249,2.807,2.807,0,0,0-1.368.622,1.52,1.52,0,0,0-.373,1.119,1.87,1.87,0,0,0,.5,1.368,1.7,1.7,0,0,0,1.368.5,2.926,2.926,0,0,0,2.114-.746,2.706,2.706,0,0,0,.871-1.99V8.831Zm19.154,2.114H170.4a6.465,6.465,0,0,1-1.99,4.229,6.491,6.491,0,0,1-4.478,1.493,6.382,6.382,0,0,1-4.975-2.114,8.636,8.636,0,0,1-1.741-5.846,8.8,8.8,0,0,1,1.866-5.97,6.687,6.687,0,0,1,9.2-.746,4.913,4.913,0,0,1,1.741,3.856h-1.741a4.449,4.449,0,0,0-1.368-2.736,4.538,4.538,0,0,0-2.985-1,4.422,4.422,0,0,0-3.607,1.741A8.57,8.57,0,0,0,159.2,8.582a8.293,8.293,0,0,0,1.368,4.851,4.422,4.422,0,0,0,3.607,1.741,4.034,4.034,0,0,0,2.985-1.119A5.631,5.631,0,0,0,168.657,10.945Zm3.856-2.363a8.587,8.587,0,0,1,1.866-5.97,7.51,7.51,0,0,1,10.448,0,8.587,8.587,0,0,1,1.866,5.97,8.8,8.8,0,0,1-1.866,5.97,7.51,7.51,0,0,1-10.448,0,8.587,8.587,0,0,1-1.866-5.97m1.866,0a7.766,7.766,0,0,0,1.368,4.851,5.139,5.139,0,0,0,7.711,0,7.766,7.766,0,0,0,1.368-4.851,7.766,7.766,0,0,0-1.368-4.851,5.139,5.139,0,0,0-7.711,0,8.293,8.293,0,0,0-1.368,4.851M189.8,16.294V.871h1.741V3.358A5.3,5.3,0,0,1,196.393.5a5.152,5.152,0,0,1,2.861.746,3.622,3.622,0,0,1,1.493,2.239,5.873,5.873,0,0,1,1.99-2.239A5.778,5.778,0,0,1,205.6.5a5.024,5.024,0,0,1,3.731,1.244,5.025,5.025,0,0,1,1.244,3.731v10.7h-1.741V5.721a4,4,0,0,0-.746-2.736,3.511,3.511,0,0,0-2.488-.871,4.045,4.045,0,0,0-3.234,1.244,5.054,5.054,0,0,0-1.244,3.358v9.577h-1.741V5.846a4.62,4.62,0,0,0-.746-2.861,2.926,2.926,0,0,0-2.363-.871,4.219,4.219,0,0,0-3.234,1.244,4.5,4.5,0,0,0-1.244,3.358v9.453H189.8Zm24.751,6.095V.871h1.741V3.731a5.178,5.178,0,0,1,2.239-2.363,6.543,6.543,0,0,1,3.234-.746,6.382,6.382,0,0,1,4.975,2.114,8.8,8.8,0,0,1,1.866,5.97,9.026,9.026,0,0,1-1.866,5.97,7.077,7.077,0,0,1-8.209,1.368,5.9,5.9,0,0,1-2.239-2.363v8.706Zm1.741-13.806a7.627,7.627,0,0,0,1.368,4.726,4.738,4.738,0,0,0,3.856,1.741,4.408,4.408,0,0,0,3.856-1.741,7.766,7.766,0,0,0,1.368-4.851,7.766,7.766,0,0,0-1.368-4.851,5.139,5.139,0,0,0-7.711,0,7.854,7.854,0,0,0-1.368,4.975m25.373,5.473a9.719,9.719,0,0,1-2.612,1.99,8.55,8.55,0,0,1-2.985.622,5.422,5.422,0,0,1-3.731-1.244,4.441,4.441,0,0,1-.746-5.473,3.843,3.843,0,0,1,1.866-1.493,14.924,14.924,0,0,1,4.6-.871,2.425,2.425,0,0,0,1-.124.94.94,0,0,0,.5-.124c1.493-.249,2.239-1,2.239-1.866a3.326,3.326,0,0,0-.871-2.612,4.62,4.62,0,0,0-2.861-.746,4.428,4.428,0,0,0-3.109.871A3.213,3.213,0,0,0,233.831,5.6H232.09a4.422,4.422,0,0,1,1.741-3.607A7,7,0,0,1,238.184.622a6.138,6.138,0,0,1,4.229,1.244,4.174,4.174,0,0,1,1.493,3.483v8.333a2.676,2.676,0,0,0,.249,1.244,1.45,1.45,0,0,0,.871.249h.622v1.368a5.387,5.387,0,0,0-.622.124H244.4a2.11,2.11,0,0,1-1.617-.5,2.11,2.11,0,0,1-.5-1.617v-.5Zm-.124-5.846c-.5.124-1.119.249-1.741.373a21.727,21.727,0,0,1-3.607.249,6.4,6.4,0,0,0-2.612,1.244,2.475,2.475,0,0,0-.871,1.99,2.562,2.562,0,0,0,.871,2.114,3.947,3.947,0,0,0,2.488.746,5.539,5.539,0,0,0,3.856-1.244,4.34,4.34,0,0,0,1.493-3.483V8.209Zm5.97,8.085V.871h1.741V3.358a5.736,5.736,0,0,1,2.114-2.114A5.909,5.909,0,0,1,254.353.5a4.708,4.708,0,0,1,2.736.622,4.649,4.649,0,0,1,1.866,1.617,3.725,3.725,0,0,1,.5,1.244,12.89,12.89,0,0,1,.124,2.488v9.826h-1.866V6.716c0-1.866-.249-2.985-.871-3.607a3.713,3.713,0,0,0-2.985-1A4.213,4.213,0,0,0,250.5,3.483a5.024,5.024,0,0,0-1.244,3.731v9.08Zm20.647,2.985a6.285,6.285,0,0,1-1.617,2.612,3.947,3.947,0,0,1-2.488.746h-.622c-.249,0-.373-.124-.622-.124V20.9a4.4,4.4,0,0,1,.746.124h.5a1.983,1.983,0,0,0,1.493-.5,5.3,5.3,0,0,0,1.119-2.114l.746-1.866L261.443,1h1.866l4.975,13.06L273.134,1H275ZM55.473,8.458A7.836,7.836,0,1,1,47.637.622,7.726,7.726,0,0,1,55.473,8.458Zm-19.9,0A7.836,7.836,0,1,1,27.736.622,7.726,7.726,0,0,1,35.572,8.458Zm-19.9,0A7.836,7.836,0,1,1,7.836.622,7.726,7.726,0,0,1,15.672,8.458Z" transform="translate(0 0)"/>
  </g>
</svg>
